{
  "accessors": [
    {
      "name": "Polygon_1_positions",
      "componentType": 5126,
      "count": 444,
      "min": [
        -134.78001403808594,
        -20.96243667602539,
        -449.2708740234375
      ],
      "max": [
        3.804248809814453,
        301.09796142578125,
        -235.12950134277344
      ],
      "type": "VEC3",
      "bufferView": 0,
      "byteOffset": 0
    },
    {
      "name": "Polygon_1_normals",
      "componentType": 5126,
      "count": 444,
      "min": [
        -0.4422408640384674,
        -0.6867657899856567,
        -0.9695724248886108
      ],
      "max": [
        0.9002610445022583,
        0.00465713907033205,
        -0.43532559275627136
      ],
      "type": "VEC3",
      "bufferView": 0,
      "byteOffset": 55392
    },
    {
      "name": "Polygon_1_texcoords",
      "componentType": 5126,
      "count": 444,
      "min": [
        0,
        0
      ],
      "max": [
        1,
        1
      ],
      "type": "VEC2",
      "bufferView": 1,
      "byteOffset": 0
    },
    {
      "name": "Polygon_1_0_indices",
      "componentType": 5123,
      "count": 1800,
      "min": [
        0
      ],
      "max": [
        443
      ],
      "type": "SCALAR",
      "bufferView": 2,
      "byteOffset": 0
    },
    {
      "name": "Polygon_1_1_positions",
      "componentType": 5126,
      "count": 444,
      "min": [
        -91.20246124267578,
        -20.96243667602539,
        -516.1913452148438
      ],
      "max": [
        -3.996811628341675,
        301.09796142578125,
        -254.7792510986328
      ],
      "type": "VEC3",
      "bufferView": 0,
      "byteOffset": 5328
    },
    {
      "name": "Polygon_1_1_normals",
      "componentType": 5126,
      "count": 444,
      "min": [
        0.09848335385322571,
        -0.696841835975647,
        -0.837990939617157
      ],
      "max": [
        0.997512698173523,
        0.004156689625233412,
        0.15919062495231628
      ],
      "type": "VEC3",
      "bufferView": 0,
      "byteOffset": 60720
    },
    {
      "name": "Polygon_1_1_texcoords",
      "componentType": 5126,
      "count": 444,
      "min": [
        0,
        0
      ],
      "max": [
        1,
        1
      ],
      "type": "VEC2",
      "bufferView": 1,
      "byteOffset": 3552
    },
    {
      "name": "Polygon_1_1_0_indices",
      "componentType": 5123,
      "count": 1800,
      "min": [
        0
      ],
      "max": [
        443
      ],
      "type": "SCALAR",
      "bufferView": 2,
      "byteOffset": 3600
    },
    {
      "name": "Polygon_2_1_positions",
      "componentType": 5126,
      "count": 444,
      "min": [
        -70.6048583984375,
        -20.96243667602539,
        -505.239013671875
      ],
      "max": [
        105.49068450927734,
        301.09796142578125,
        -278.8388366699219
      ],
      "type": "VEC3",
      "bufferView": 0,
      "byteOffset": 10656
    },
    {
      "name": "Polygon_2_1_normals",
      "componentType": 5126,
      "count": 444,
      "min": [
        0.6437662839889526,
        -0.6657728552818298,
        -0.5417384505271912
      ],
      "max": [
        0.9855562448501587,
        0.004048560746014118,
        0.6311029195785522
      ],
      "type": "VEC3",
      "bufferView": 0,
      "byteOffset": 66048
    },
    {
      "name": "Polygon_2_1_texcoords",
      "componentType": 5126,
      "count": 444,
      "min": [
        0,
        0
      ],
      "max": [
        1,
        1
      ],
      "type": "VEC2",
      "bufferView": 1,
      "byteOffset": 7104
    },
    {
      "name": "Polygon_2_1_0_indices",
      "componentType": 5123,
      "count": 1800,
      "min": [
        0
      ],
      "max": [
        443
      ],
      "type": "SCALAR",
      "bufferView": 2,
      "byteOffset": 7200
    },
    {
      "name": "Polygon_3_1_positions",
      "componentType": 5126,
      "count": 444,
      "min": [
        -53.385887145996094,
        -20.96243667602539,
        -436.5255126953125
      ],
      "max": [
        179.8029022216797,
        301.09796142578125,
        -302.6092224121094
      ],
      "type": "VEC3",
      "bufferView": 0,
      "byteOffset": 15984
    },
    {
      "name": "Polygon_3_1_normals",
      "componentType": 5126,
      "count": 444,
      "min": [
        0.3183150291442871,
        -0.6268846392631531,
        -0.032547734677791595
      ],
      "max": [
        0.9054033160209656,
        0.004430807661265135,
        0.9479746222496033
      ],
      "type": "VEC3",
      "bufferView": 0,
      "byteOffset": 71376
    },
    {
      "name": "Polygon_3_1_texcoords",
      "componentType": 5126,
      "count": 444,
      "min": [
        0,
        0
      ],
      "max": [
        1,
        1
      ],
      "type": "VEC2",
      "bufferView": 1,
      "byteOffset": 10656
    },
    {
      "name": "Polygon_3_1_0_indices",
      "componentType": 5123,
      "count": 1800,
      "min": [
        0
      ],
      "max": [
        443
      ],
      "type": "SCALAR",
      "bufferView": 2,
      "byteOffset": 10800
    },
    {
      "name": "Polygon_4_1_positions",
      "componentType": 5126,
      "count": 444,
      "min": [
        -32.128517150878906,
        -20.96243667602539,
        -396.9463195800781
      ],
      "max": [
        187.114990234375,
        301.09796142578125,
        -280.8854675292969
      ],
      "type": "VEC3",
      "bufferView": 0,
      "byteOffset": 21312
    },
    {
      "name": "Polygon_4_1_normals",
      "componentType": 5126,
      "count": 444,
      "min": [
        -0.36888548731803894,
        -0.6433605551719666,
        0.4242182672023773
      ],
      "max": [
        0.7721939086914062,
        0.0049184225499629974,
        0.9953722953796387
      ],
      "type": "VEC3",
      "bufferView": 0,
      "byteOffset": 76704
    },
    {
      "name": "Polygon_4_1_texcoords",
      "componentType": 5126,
      "count": 444,
      "min": [
        0,
        0
      ],
      "max": [
        1,
        1
      ],
      "type": "VEC2",
      "bufferView": 1,
      "byteOffset": 14208
    },
    {
      "name": "Polygon_4_1_0_indices",
      "componentType": 5123,
      "count": 1800,
      "min": [
        0
      ],
      "max": [
        443
      ],
      "type": "SCALAR",
      "bufferView": 2,
      "byteOffset": 14400
    },
    {
      "name": "Polygon_5_1_positions",
      "componentType": 5126,
      "count": 444,
      "min": [
        -9.887968063354492,
        -20.96243667602539,
        -375.2705078125
      ],
      "max": [
        128.69630432128906,
        301.09796142578125,
        -161.12913513183594
      ],
      "type": "VEC3",
      "bufferView": 0,
      "byteOffset": 26640
    },
    {
      "name": "Polygon_5_1_normals",
      "componentType": 5126,
      "count": 444,
      "min": [
        -0.9002650380134583,
        -0.6867659687995911,
        0.4353172183036804
      ],
      "max": [
        0.4422409236431122,
        0.004663907922804356,
        0.9695721864700317
      ],
      "type": "VEC3",
      "bufferView": 0,
      "byteOffset": 82032
    },
    {
      "name": "Polygon_5_1_texcoords",
      "componentType": 5126,
      "count": 444,
      "min": [
        0,
        0
      ],
      "max": [
        1,
        1
      ],
      "type": "VEC2",
      "bufferView": 1,
      "byteOffset": 17760
    },
    {
      "name": "Polygon_5_1_0_indices",
      "componentType": 5123,
      "count": 1800,
      "min": [
        0
      ],
      "max": [
        443
      ],
      "type": "SCALAR",
      "bufferView": 2,
      "byteOffset": 18000
    },
    {
      "name": "Polygon_6_1_positions",
      "componentType": 5126,
      "count": 444,
      "min": [
        -2.086907148361206,
        -20.96243667602539,
        -355.6207580566406
      ],
      "max": [
        85.11874389648438,
        301.09796142578125,
        -94.2086410522461
      ],
      "type": "VEC3",
      "bufferView": 0,
      "byteOffset": 31968
    },
    {
      "name": "Polygon_6_1_normals",
      "componentType": 5126,
      "count": 444,
      "min": [
        -0.997512698173523,
        -0.6968415975570679,
        -0.15918613970279694
      ],
      "max": [
        -0.0984833613038063,
        0.004152975510805845,
        0.837990939617157
      ],
      "type": "VEC3",
      "bufferView": 0,
      "byteOffset": 87360
    },
    {
      "name": "Polygon_6_1_texcoords",
      "componentType": 5126,
      "count": 444,
      "min": [
        0,
        0
      ],
      "max": [
        1,
        1
      ],
      "type": "VEC2",
      "bufferView": 1,
      "byteOffset": 21312
    },
    {
      "name": "Polygon_6_1_0_indices",
      "componentType": 5123,
      "count": 1800,
      "min": [
        0
      ],
      "max": [
        443
      ],
      "type": "SCALAR",
      "bufferView": 2,
      "byteOffset": 21600
    },
    {
      "name": "Polygon_7_1_positions",
      "componentType": 5126,
      "count": 444,
      "min": [
        -111.57440185546875,
        -20.96243667602539,
        -331.5611572265625
      ],
      "max": [
        64.5211410522461,
        301.09796142578125,
        -105.16100311279297
      ],
      "type": "VEC3",
      "bufferView": 0,
      "byteOffset": 37296
    },
    {
      "name": "Polygon_7_1_normals",
      "componentType": 5126,
      "count": 444,
      "min": [
        -0.9855562448501587,
        -0.6657728552818298,
        -0.6311122179031372
      ],
      "max": [
        -0.643765926361084,
        0.004059737082570791,
        0.5417385697364807
      ],
      "type": "VEC3",
      "bufferView": 0,
      "byteOffset": 92688
    },
    {
      "name": "Polygon_7_1_texcoords",
      "componentType": 5126,
      "count": 444,
      "min": [
        0,
        0
      ],
      "max": [
        1,
        1
      ],
      "type": "VEC2",
      "bufferView": 1,
      "byteOffset": 24864
    },
    {
      "name": "Polygon_7_1_0_indices",
      "componentType": 5123,
      "count": 1800,
      "min": [
        0
      ],
      "max": [
        443
      ],
      "type": "SCALAR",
      "bufferView": 2,
      "byteOffset": 25200
    },
    {
      "name": "Polygon_8_1_positions",
      "componentType": 5126,
      "count": 444,
      "min": [
        -185.88662719726562,
        -20.96243667602539,
        -307.790771484375
      ],
      "max": [
        47.30216598510742,
        301.09796142578125,
        -173.87449645996094
      ],
      "type": "VEC3",
      "bufferView": 0,
      "byteOffset": 42624
    },
    {
      "name": "Polygon_8_1_normals",
      "componentType": 5126,
      "count": 444,
      "min": [
        -0.9054033160209656,
        -0.6268846392631531,
        -0.9479809999465942
      ],
      "max": [
        -0.3182958662509918,
        0.004444824066013098,
        0.03254704549908638
      ],
      "type": "VEC3",
      "bufferView": 0,
      "byteOffset": 98016
    },
    {
      "name": "Polygon_8_1_texcoords",
      "componentType": 5126,
      "count": 444,
      "min": [
        0,
        0
      ],
      "max": [
        1,
        1
      ],
      "type": "VEC2",
      "bufferView": 1,
      "byteOffset": 28416
    },
    {
      "name": "Polygon_8_1_0_indices",
      "componentType": 5123,
      "count": 1800,
      "min": [
        0
      ],
      "max": [
        443
      ],
      "type": "SCALAR",
      "bufferView": 2,
      "byteOffset": 28800
    },
    {
      "name": "Polygon_9_1_positions",
      "componentType": 5126,
      "count": 444,
      "min": [
        -193.19871520996094,
        -20.96243667602539,
        -329.5145263671875
      ],
      "max": [
        26.0447998046875,
        301.09796142578125,
        -213.45367431640625
      ],
      "type": "VEC3",
      "bufferView": 0,
      "byteOffset": 47952
    },
    {
      "name": "Polygon_9_1_normals",
      "componentType": 5126,
      "count": 444,
      "min": [
        -0.7721941471099854,
        -0.6433606147766113,
        -0.9953722357749939
      ],
      "max": [
        0.36884796619415283,
        0.004890426993370056,
        -0.4242178499698639
      ],
      "type": "VEC3",
      "bufferView": 0,
      "byteOffset": 103344
    },
    {
      "name": "Polygon_9_1_texcoords",
      "componentType": 5126,
      "count": 444,
      "min": [
        0,
        0
      ],
      "max": [
        1,
        1
      ],
      "type": "VEC2",
      "bufferView": 1,
      "byteOffset": 31968
    },
    {
      "name": "Polygon_9_1_0_indices",
      "componentType": 5123,
      "count": 1800,
      "min": [
        0
      ],
      "max": [
        443
      ],
      "type": "SCALAR",
      "bufferView": 2,
      "byteOffset": 32400
    },
    {
      "name": "Platonic_1_positions",
      "componentType": 5126,
      "count": 176,
      "min": [
        -270.1728820800781,
        -672.31396484375,
        -567.64404296875
      ],
      "max": [
        279.30029296875,
        62.58766555786133,
        -42.75324630737305
      ],
      "type": "VEC3",
      "bufferView": 0,
      "byteOffset": 53280
    },
    {
      "name": "Platonic_1_texcoords",
      "componentType": 5126,
      "count": 176,
      "min": [
        0,
        0
      ],
      "max": [
        1,
        1
      ],
      "type": "VEC2",
      "bufferView": 1,
      "byteOffset": 35520
    },
    {
      "name": "Platonic_1_0_indices",
      "componentType": 5123,
      "count": 348,
      "min": [
        0
      ],
      "max": [
        175
      ],
      "type": "SCALAR",
      "bufferView": 2,
      "byteOffset": 36000
    }
  ],
  "asset": {
    "generator": "obj2gltf",
    "version": "2.0"
  },
  "buffers": [
    {
      "name": "pineapple2",
      "byteLength": 182296,
      "uri": "data:application/octet-stream;base64,"
    }
  ],
  "bufferViews": [
    {
      "name": "bufferView_0",
      "buffer": 0,
      "byteLength": 108672,
      "byteOffset": 0,
      "byteStride": 12,
      "target": 34962
    },
    {
      "name": "bufferView_1",
      "buffer": 0,
      "byteLength": 36928,
      "byteOffset": 108672,
      "byteStride": 8,
      "target": 34962
    },
    {
      "name": "bufferView_2",
      "buffer": 0,
      "byteLength": 36696,
      "byteOffset": 145600,
      "target": 34963
    }
  ],
  "materials": [
    {
      "name": "Default_l2",
      "pbrMetallicRoughness": {
        "baseColorFactor": [
          0,
          0,
          0,
          1
        ],
        "metallicFactor": 0,
        "roughnessFactor": 1
      },
      "emissiveFactor": [
        0,
        0,
        0
      ],
      "alphaMode": "OPAQUE",
      "doubleSided": false
    },
    {
      "name": "RandomColor_1",
      "pbrMetallicRoughness": {
        "baseColorFactor": [
          0.93725490570068,
          0.87058824300766,
          0.80392158031464,
          1
        ],
        "metallicFactor": 0,
        "roughnessFactor": 1
      },
      "emissiveFactor": [
        0,
        0,
        0
      ],
      "alphaMode": "OPAQUE",
      "doubleSided": false
    }
  ],
  "meshes": [
    {
      "name": "Polygon_1",
      "primitives": [
        {
          "attributes": {
            "POSITION": 0,
            "NORMAL": 1,
            "TEXCOORD_0": 2
          },
          "indices": 3,
          "material": 0,
          "mode": 4
        }
      ]
    },
    {
      "name": "Polygon_1_1",
      "primitives": [
        {
          "attributes": {
            "POSITION": 4,
            "NORMAL": 5,
            "TEXCOORD_0": 6
          },
          "indices": 7,
          "material": 0,
          "mode": 4
        }
      ]
    },
    {
      "name": "Polygon_2_1",
      "primitives": [
        {
          "attributes": {
            "POSITION": 8,
            "NORMAL": 9,
            "TEXCOORD_0": 10
          },
          "indices": 11,
          "material": 0,
          "mode": 4
        }
      ]
    },
    {
      "name": "Polygon_3_1",
      "primitives": [
        {
          "attributes": {
            "POSITION": 12,
            "NORMAL": 13,
            "TEXCOORD_0": 14
          },
          "indices": 15,
          "material": 0,
          "mode": 4
        }
      ]
    },
    {
      "name": "Polygon_4_1",
      "primitives": [
        {
          "attributes": {
            "POSITION": 16,
            "NORMAL": 17,
            "TEXCOORD_0": 18
          },
          "indices": 19,
          "material": 0,
          "mode": 4
        }
      ]
    },
    {
      "name": "Polygon_5_1",
      "primitives": [
        {
          "attributes": {
            "POSITION": 20,
            "NORMAL": 21,
            "TEXCOORD_0": 22
          },
          "indices": 23,
          "material": 0,
          "mode": 4
        }
      ]
    },
    {
      "name": "Polygon_6_1",
      "primitives": [
        {
          "attributes": {
            "POSITION": 24,
            "NORMAL": 25,
            "TEXCOORD_0": 26
          },
          "indices": 27,
          "material": 0,
          "mode": 4
        }
      ]
    },
    {
      "name": "Polygon_7_1",
      "primitives": [
        {
          "attributes": {
            "POSITION": 28,
            "NORMAL": 29,
            "TEXCOORD_0": 30
          },
          "indices": 31,
          "material": 0,
          "mode": 4
        }
      ]
    },
    {
      "name": "Polygon_8_1",
      "primitives": [
        {
          "attributes": {
            "POSITION": 32,
            "NORMAL": 33,
            "TEXCOORD_0": 34
          },
          "indices": 35,
          "material": 0,
          "mode": 4
        }
      ]
    },
    {
      "name": "Polygon_9_1",
      "primitives": [
        {
          "attributes": {
            "POSITION": 36,
            "NORMAL": 37,
            "TEXCOORD_0": 38
          },
          "indices": 39,
          "material": 0,
          "mode": 4
        }
      ]
    },
    {
      "name": "Platonic_1",
      "primitives": [
        {
          "attributes": {
            "POSITION": 40,
            "TEXCOORD_0": 41
          },
          "indices": 42,
          "material": 1,
          "mode": 4
        }
      ]
    }
  ],
  "nodes": [
    {
      "name": "Polygon",
      "mesh": 0
    },
    {
      "name": "Polygon_1",
      "mesh": 1
    },
    {
      "name": "Polygon_2",
      "mesh": 2
    },
    {
      "name": "Polygon_3",
      "mesh": 3
    },
    {
      "name": "Polygon_4",
      "mesh": 4
    },
    {
      "name": "Polygon_5",
      "mesh": 5
    },
    {
      "name": "Polygon_6",
      "mesh": 6
    },
    {
      "name": "Polygon_7",
      "mesh": 7
    },
    {
      "name": "Polygon_8",
      "mesh": 8
    },
    {
      "name": "Polygon_9",
      "mesh": 9
    },
    {
      "name": "Platonic",
      "mesh": 10
    }
  ],
  "scene": 0,
  "scenes": [
    {
      "nodes": [
        0,
        1,
        2,
        3,
        4,
        5,
        6,
        7,
        8,
        9,
        10
      ]
    }
  ]
}
