{
  "accessors": [
    {
      "bufferView": 1,
      "componentType": 5126,
      "count": 12476,
      "max": [
        112.40286254882812,
        105.06178283691406,
        125.08057403564453
      ],
      "min": [
        -112.40286254882812,
        -105.06178283691406,
        -125.08057403564453
      ],
      "type": "VEC3"
    },
    {
      "bufferView": 1,
      "byteOffset": 149712,
      "componentType": 5126,
      "count": 12476,
      "max": [
        0.99933958053588867,
        0.99999910593032837,
        1
      ],
      "min": [
        -0.99933958053588867,
        -0.99999910593032837,
        -1
      ],
      "type": "VEC3"
    },
    {
      "bufferView": 2,
      "componentType": 5126,
      "count": 12476,
      "max": [
        1,
        0.94634115695953369,
        0.99998587369918823,
        1
      ],
      "min": [
        -0.43566811084747314,
        -0.94634121656417847,
        -0.99998581409454346,
        -1
      ],
      "type": "VEC4"
    },
    {
      "bufferView": 0,
      "componentType": 5125,
      "count": 74928,
      "max": [
        12475
      ],
      "min": [
        0
      ],
      "type": "SCALAR"
    }
  ],
  "asset": {
    "generator": "Sketchfab (OSG glTF plugin)",
    "version": "2.0"
  },
  "bufferViews": [
    {
      "buffer": 0,
      "byteLength": 299712,
      "byteOffset": 0,
      "name": "floatBufferViews",
      "target": 34963
    },
    {
      "buffer": 0,
      "byteLength": 299424,
      "byteOffset": 299712,
      "byteStride": 12,
      "name": "floatBufferViews",
      "target": 34962
    },
    {
      "buffer": 0,
      "byteLength": 199616,
      "byteOffset": 599136,
      "byteStride": 16,
      "name": "floatBufferViews",
      "target": 34962
    }
  ],
  "buffers": [
    {
      "byteLength": 798752,
      "uri": "scene.bin"
    }
  ],
  "materials": [
    {
      "doubleSided": true,
      "emissiveFactor": [
        0,
        0,
        0
      ],
      "name": "Scene - Root",
      "pbrMetallicRoughness": {
        "baseColorFactor": [
          1,
          1,
          1,
          1
        ],
        "metallicFactor": 0,
        "roughnessFactor": 0.59999999999999998
      }
    }
  ],
  "meshes": [
    {
      "name": "Metaball__0",
      "primitives": [
        {
          "attributes": {
            "NORMAL": 1,
            "POSITION": 0,
            "TANGENT": 2
          },
          "indices": 3,
          "material": 0,
          "mode": 4
        }
      ]
    }
  ],
  "nodes": [
    {
      "children": [
        1
      ],
      "name": "RootNode (gltf orientation matrix)",
      "rotation": [
        -0.70710678118654746,
        -0,
        -0,
        0.70710678118654757
      ]
    },
    {
      "children": [
        2
      ],
      "name": "RootNode (model correction matrix)"
    },
    {
      "children": [
        3
      ],
      "matrix": [
        1,
        0,
        0,
        0,
        0,
        0,
        1,
        0,
        0,
        -1,
        0,
        0,
        0,
        0,
        0,
        1
      ],
      "name": "ufo.c4d.fbx"
    },
    {
      "children": [
        4
      ],
      "name": "RootNode"
    },
    {
      "children": [
        6
      ],
      "name": "Metaball"
    },
    {
      "mesh": 0,
      "name": "Metaball__0"
    },
    {
      "children": [
        5
      ],
      "name": "Geode"
    }
  ],
  "scene": 0,
  "scenes": [
    {
      "name": "OSG_Scene",
      "nodes": [
        0
      ]
    }
  ]
}

