{
    "accessors" : [
        {
            "bufferView" : 0, 
            "componentType" : 5123, 
            "count" : 74928, 
            "max" : [
                12475
            ], 
            "min" : [
                0
            ], 
            "type" : "SCALAR"
        }, 
        {
            "bufferView" : 1, 
            "componentType" : 5126, 
            "count" : 12476, 
            "max" : [
                112.40286254882812, 
                105.06178283691406, 
                125.08057403564453
            ], 
            "min" : [
                -112.40286254882812, 
                -105.06178283691406, 
                -125.08057403564453
            ], 
            "type" : "VEC3"
        }, 
        {
            "bufferView" : 2, 
            "componentType" : 5126, 
            "count" : 12476, 
            "max" : [
                0.99932861328125, 
                0.999969482421875, 
                1.0
            ], 
            "min" : [
                -0.99932861328125, 
                -0.999969482421875, 
                -1.0
            ], 
            "type" : "VEC3"
        }
    ], 
    "asset" : {
        "generator" : "Khronos Blender glTF 2.0 exporter", 
        "version" : "2.0"
    }, 
    "bufferViews" : [
        {
            "buffer" : 0, 
            "byteLength" : 149856, 
            "byteOffset" : 0, 
            "target" : 34963
        }, 
        {
            "buffer" : 0, 
            "byteLength" : 149712, 
            "byteOffset" : 149856, 
            "target" : 34962
        }, 
        {
            "buffer" : 0, 
            "byteLength" : 149712, 
            "byteOffset" : 299568, 
            "target" : 34962
        }
    ], 
    "buffers" : [
        {
            "byteLength" : 449280, 
            "uri" : "ufo.bin"
        }
    ], 
    "meshes" : [
        {
            "name" : "MetaballShape", 
            "primitives" : [
                {
                    "attributes" : {
                        "NORMAL" : 2, 
                        "POSITION" : 1
                    }, 
                    "indices" : 0
                }
            ]
        }
    ], 
    "nodes" : [
        {
            "mesh" : 0, 
            "name" : "Metaball"
        }
    ], 
    "scene" : 0, 
    "scenes" : [
        {
            "name" : "Scene", 
            "nodes" : [
                0
            ]
        }
    ]
}
