{
  "accessors": [
    {
      "name": "Polygon-Mesh_positions",
      "componentType": 5126,
      "count": 444,
      "min": [
        68.42106628417969,
        -32.12324142456055,
        -647.0578002929688
      ],
      "max": [
        328.2848205566406,
        499.2904968261719,
        -447.8458251953125
      ],
      "type": "VEC3",
      "bufferView": 0,
      "byteOffset": 0
    },
    {
      "name": "Polygon-Mesh_normals",
      "componentType": 5126,
      "count": 444,
      "min": [
        -0.9472469091415405,
        0.25078272819519043,
        -0.3241584300994873
      ],
      "max": [
        -0.033017177134752274,
        0.715498149394989,
        0.9372453093528748
      ],
      "type": "VEC3",
      "bufferView": 0,
      "byteOffset": 55392
    },
    {
      "name": "Polygon-Mesh_texcoords",
      "componentType": 5126,
      "count": 444,
      "min": [
        0,
        0
      ],
      "max": [
        1,
        1
      ],
      "type": "VEC2",
      "bufferView": 1,
      "byteOffset": 0
    },
    {
      "name": "Polygon-Mesh_0_indices",
      "componentType": 5123,
      "count": 1800,
      "min": [
        0
      ],
      "max": [
        443
      ],
      "type": "SCALAR",
      "bufferView": 2,
      "byteOffset": 0
    },
    {
      "name": "Polygon_1-Mesh_positions",
      "componentType": 5126,
      "count": 444,
      "min": [
        111.23899841308594,
        -32.12324142456055,
        -530.592529296875
      ],
      "max": [
        355.2753601074219,
        499.2904968261719,
        -351.0794982910156
      ],
      "type": "VEC3",
      "bufferView": 0,
      "byteOffset": 5328
    },
    {
      "name": "Polygon_1-Mesh_normals",
      "componentType": 5126,
      "count": 444,
      "min": [
        -0.9644972085952759,
        0.2558460533618927,
        -0.7473605275154114
      ],
      "max": [
        -0.5778499841690063,
        0.6995401382446289,
        0.7078683376312256
      ],
      "type": "VEC3",
      "bufferView": 0,
      "byteOffset": 60720
    },
    {
      "name": "Polygon_1-Mesh_texcoords",
      "componentType": 5126,
      "count": 444,
      "min": [
        0,
        0
      ],
      "max": [
        1,
        1
      ],
      "type": "VEC2",
      "bufferView": 1,
      "byteOffset": 3552
    },
    {
      "name": "Polygon_1-Mesh_0_indices",
      "componentType": 5123,
      "count": 1800,
      "min": [
        0
      ],
      "max": [
        443
      ],
      "type": "SCALAR",
      "bufferView": 2,
      "byteOffset": 3600
    },
    {
      "name": "Polygon_2-Mesh_positions",
      "componentType": 5126,
      "count": 444,
      "min": [
        32.372867584228516,
        -32.12324142456055,
        -437.4045715332031
      ],
      "max": [
        256.99169921875,
        499.2904968261719,
        -227.8631591796875
      ],
      "type": "VEC3",
      "bufferView": 0,
      "byteOffset": 10656
    },
    {
      "name": "Polygon_2-Mesh_normals",
      "componentType": 5126,
      "count": 444,
      "min": [
        -0.9486755132675171,
        0.23022612929344177,
        -0.9332196712493896
      ],
      "max": [
        -0.12542341649532318,
        0.6574168801307678,
        0.11010950058698654
      ],
      "type": "VEC3",
      "bufferView": 0,
      "byteOffset": 66048
    },
    {
      "name": "Polygon_2-Mesh_texcoords",
      "componentType": 5126,
      "count": 444,
      "min": [
        0,
        0
      ],
      "max": [
        1,
        1
      ],
      "type": "VEC2",
      "bufferView": 1,
      "byteOffset": 7104
    },
    {
      "name": "Polygon_2-Mesh_0_indices",
      "componentType": 5123,
      "count": 1800,
      "min": [
        0
      ],
      "max": [
        443
      ],
      "type": "SCALAR",
      "bufferView": 2,
      "byteOffset": 7200
    },
    {
      "name": "Polygon_3-Mesh_positions",
      "componentType": 5126,
      "count": 444,
      "min": [
        -74.29551696777344,
        -32.12324142456055,
        -353.6968078613281
      ],
      "max": [
        127.6544189453125,
        499.2904968261719,
        -118.4357681274414
      ],
      "type": "VEC3",
      "bufferView": 0,
      "byteOffset": 15984
    },
    {
      "name": "Polygon_3-Mesh_normals",
      "componentType": 5126,
      "count": 444,
      "min": [
        -0.8090916872024536,
        0.21522708237171173,
        -0.9623798727989197
      ],
      "max": [
        0.43181082606315613,
        0.6467681527137756,
        -0.4753856658935547
      ],
      "type": "VEC3",
      "bufferView": 0,
      "byteOffset": 71376
    },
    {
      "name": "Polygon_3-Mesh_texcoords",
      "componentType": 5126,
      "count": 444,
      "min": [
        0,
        0
      ],
      "max": [
        1,
        1
      ],
      "type": "VEC2",
      "bufferView": 1,
      "byteOffset": 10656
    },
    {
      "name": "Polygon_3-Mesh_0_indices",
      "componentType": 5123,
      "count": 1800,
      "min": [
        0
      ],
      "max": [
        443
      ],
      "type": "SCALAR",
      "bufferView": 2,
      "byteOffset": 10800
    },
    {
      "name": "Polygon_4-Mesh_positions",
      "componentType": 5126,
      "count": 444,
      "min": [
        -199.16989135742188,
        -32.12324142456055,
        -341.7069091796875
      ],
      "max": [
        20.762615203857422,
        499.2904968261719,
        -121.90131378173828
      ],
      "type": "VEC3",
      "bufferView": 0,
      "byteOffset": 21312
    },
    {
      "name": "Polygon_4-Mesh_normals",
      "componentType": 5126,
      "count": 444,
      "min": [
        -0.45657092332839966,
        0.22465796768665314,
        -0.9733065962791443
      ],
      "max": [
        0.8692381978034973,
        0.6807376742362976,
        -0.3081631362438202
      ],
      "type": "VEC3",
      "bufferView": 0,
      "byteOffset": 76704
    },
    {
      "name": "Polygon_4-Mesh_texcoords",
      "componentType": 5126,
      "count": 444,
      "min": [
        0,
        0
      ],
      "max": [
        1,
        1
      ],
      "type": "VEC2",
      "bufferView": 1,
      "byteOffset": 14208
    },
    {
      "name": "Polygon_4-Mesh_0_indices",
      "componentType": 5123,
      "count": 1800,
      "min": [
        0
      ],
      "max": [
        443
      ],
      "type": "SCALAR",
      "bufferView": 2,
      "byteOffset": 14400
    },
    {
      "name": "Polygon_5-Mesh_positions",
      "componentType": 5126,
      "count": 444,
      "min": [
        -336.9758605957031,
        -32.12324142456055,
        -424.1541748046875
      ],
      "max": [
        -77.11209106445312,
        499.2904968261719,
        -224.94216918945312
      ],
      "type": "VEC3",
      "bufferView": 0,
      "byteOffset": 26640
    },
    {
      "name": "Polygon_5-Mesh_normals",
      "componentType": 5126,
      "count": 444,
      "min": [
        0.03301464766263962,
        0.2507827579975128,
        -0.9372457265853882
      ],
      "max": [
        0.9472467303276062,
        0.7154980897903442,
        0.3241690695285797
      ],
      "type": "VEC3",
      "bufferView": 0,
      "byteOffset": 82032
    },
    {
      "name": "Polygon_5-Mesh_texcoords",
      "componentType": 5126,
      "count": 444,
      "min": [
        0,
        0
      ],
      "max": [
        1,
        1
      ],
      "type": "VEC2",
      "bufferView": 1,
      "byteOffset": 17760
    },
    {
      "name": "Polygon_5-Mesh_0_indices",
      "componentType": 5123,
      "count": 1800,
      "min": [
        0
      ],
      "max": [
        443
      ],
      "type": "SCALAR",
      "bufferView": 2,
      "byteOffset": 18000
    },
    {
      "name": "Polygon_6-Mesh_positions",
      "componentType": 5126,
      "count": 444,
      "min": [
        -363.9664001464844,
        -32.12324142456055,
        -520.9205322265625
      ],
      "max": [
        -119.9300308227539,
        499.2904968261719,
        -341.4074401855469
      ],
      "type": "VEC3",
      "bufferView": 0,
      "byteOffset": 31968
    },
    {
      "name": "Polygon_6-Mesh_normals",
      "componentType": 5126,
      "count": 444,
      "min": [
        0.5778577327728271,
        0.25584566593170166,
        -0.7078678011894226
      ],
      "max": [
        0.9644972085952759,
        0.6995401382446289,
        0.7473530769348145
      ],
      "type": "VEC3",
      "bufferView": 0,
      "byteOffset": 87360
    },
    {
      "name": "Polygon_6-Mesh_texcoords",
      "componentType": 5126,
      "count": 444,
      "min": [
        0,
        0
      ],
      "max": [
        1,
        1
      ],
      "type": "VEC2",
      "bufferView": 1,
      "byteOffset": 21312
    },
    {
      "name": "Polygon_6-Mesh_0_indices",
      "componentType": 5123,
      "count": 1800,
      "min": [
        0
      ],
      "max": [
        443
      ],
      "type": "SCALAR",
      "bufferView": 2,
      "byteOffset": 21600
    },
    {
      "name": "Polygon_7-Mesh_positions",
      "componentType": 5126,
      "count": 444,
      "min": [
        -265.6827392578125,
        -32.12324142456055,
        -644.1368408203125
      ],
      "max": [
        -41.06389617919922,
        499.2904968261719,
        -434.5954284667969
      ],
      "type": "VEC3",
      "bufferView": 0,
      "byteOffset": 37296
    },
    {
      "name": "Polygon_7-Mesh_normals",
      "componentType": 5126,
      "count": 444,
      "min": [
        0.12544524669647217,
        0.23022611439228058,
        -0.11010989546775818
      ],
      "max": [
        0.9486756920814514,
        0.657416820526123,
        0.9332147836685181
      ],
      "type": "VEC3",
      "bufferView": 0,
      "byteOffset": 92688
    },
    {
      "name": "Polygon_7-Mesh_texcoords",
      "componentType": 5126,
      "count": 444,
      "min": [
        0,
        0
      ],
      "max": [
        1,
        1
      ],
      "type": "VEC2",
      "bufferView": 1,
      "byteOffset": 24864
    },
    {
      "name": "Polygon_7-Mesh_0_indices",
      "componentType": 5123,
      "count": 1800,
      "min": [
        0
      ],
      "max": [
        443
      ],
      "type": "SCALAR",
      "bufferView": 2,
      "byteOffset": 25200
    },
    {
      "name": "Polygon_8-Mesh_positions",
      "componentType": 5126,
      "count": 444,
      "min": [
        -136.34544372558594,
        -32.12324142456055,
        -753.564208984375
      ],
      "max": [
        65.6044921875,
        499.2904968261719,
        -518.30322265625
      ],
      "type": "VEC3",
      "bufferView": 0,
      "byteOffset": 42624
    },
    {
      "name": "Polygon_8-Mesh_normals",
      "componentType": 5126,
      "count": 444,
      "min": [
        -0.43181025981903076,
        0.21522706747055054,
        0.4753868877887726
      ],
      "max": [
        0.8090909123420715,
        0.6467679142951965,
        0.9623798727989197
      ],
      "type": "VEC3",
      "bufferView": 0,
      "byteOffset": 98016
    },
    {
      "name": "Polygon_8-Mesh_texcoords",
      "componentType": 5126,
      "count": 444,
      "min": [
        0,
        0
      ],
      "max": [
        1,
        1
      ],
      "type": "VEC2",
      "bufferView": 1,
      "byteOffset": 28416
    },
    {
      "name": "Polygon_8-Mesh_0_indices",
      "componentType": 5123,
      "count": 1800,
      "min": [
        0
      ],
      "max": [
        443
      ],
      "type": "SCALAR",
      "bufferView": 2,
      "byteOffset": 28800
    },
    {
      "name": "Polygon_9-Mesh_positions",
      "componentType": 5126,
      "count": 444,
      "min": [
        -29.453641891479492,
        -32.12324142456055,
        -750.0986938476562
      ],
      "max": [
        190.47886657714844,
        499.2904968261719,
        -530.2930908203125
      ],
      "type": "VEC3",
      "bufferView": 0,
      "byteOffset": 47952
    },
    {
      "name": "Polygon_9-Mesh_normals",
      "componentType": 5126,
      "count": 444,
      "min": [
        -0.8692333102226257,
        0.22465835511684418,
        0.3081739842891693
      ],
      "max": [
        0.4565771818161011,
        0.6807380318641663,
        0.9733064770698547
      ],
      "type": "VEC3",
      "bufferView": 0,
      "byteOffset": 103344
    },
    {
      "name": "Polygon_9-Mesh_texcoords",
      "componentType": 5126,
      "count": 444,
      "min": [
        0,
        0
      ],
      "max": [
        1,
        1
      ],
      "type": "VEC2",
      "bufferView": 1,
      "byteOffset": 31968
    },
    {
      "name": "Polygon_9-Mesh_0_indices",
      "componentType": 5123,
      "count": 1800,
      "min": [
        0
      ],
      "max": [
        443
      ],
      "type": "SCALAR",
      "bufferView": 2,
      "byteOffset": 32400
    },
    {
      "name": "Platonic-Mesh_positions",
      "componentType": 5126,
      "count": 176,
      "min": [
        -385.96124267578125,
        -960.448486328125,
        -810.9200439453125
      ],
      "max": [
        399.0003967285156,
        89.41094970703125,
        -61.07606887817383
      ],
      "type": "VEC3",
      "bufferView": 0,
      "byteOffset": 53280
    },
    {
      "name": "Platonic-Mesh_texcoords",
      "componentType": 5126,
      "count": 176,
      "min": [
        0,
        0
      ],
      "max": [
        1,
        1
      ],
      "type": "VEC2",
      "bufferView": 1,
      "byteOffset": 35520
    },
    {
      "name": "Platonic-Mesh_0_indices",
      "componentType": 5123,
      "count": 348,
      "min": [
        0
      ],
      "max": [
        175
      ],
      "type": "SCALAR",
      "bufferView": 2,
      "byteOffset": 36000
    }
  ],
  "asset": {
    "generator": "obj2gltf",
    "version": "2.0"
  },
  "buffers": [
    {
      "name": "Untitled 1",
      "byteLength": 182296,
      "uri": "data:application/octet-stream;base64,"
    }
  ],
  "bufferViews": [
    {
      "name": "bufferView_0",
      "buffer": 0,
      "byteLength": 108672,
      "byteOffset": 0,
      "byteStride": 12,
      "target": 34962
    },
    {
      "name": "bufferView_1",
      "buffer": 0,
      "byteLength": 36928,
      "byteOffset": 108672,
      "byteStride": 8,
      "target": 34962
    },
    {
      "name": "bufferView_2",
      "buffer": 0,
      "byteLength": 36696,
      "byteOffset": 145600,
      "target": 34963
    }
  ],
  "materials": [
    {
      "name": "default",
      "pbrMetallicRoughness": {
        "baseColorFactor": [
          1,
          1,
          1,
          1
        ],
        "metallicFactor": 0,
        "roughnessFactor": 1
      },
      "emissiveFactor": [
        0,
        0,
        0
      ],
      "alphaMode": "OPAQUE",
      "doubleSided": false
    }
  ],
  "meshes": [
    {
      "name": "Polygon-Mesh",
      "primitives": [
        {
          "attributes": {
            "POSITION": 0,
            "NORMAL": 1,
            "TEXCOORD_0": 2
          },
          "indices": 3,
          "material": 0,
          "mode": 4
        }
      ]
    },
    {
      "name": "Polygon_1-Mesh",
      "primitives": [
        {
          "attributes": {
            "POSITION": 4,
            "NORMAL": 5,
            "TEXCOORD_0": 6
          },
          "indices": 7,
          "material": 0,
          "mode": 4
        }
      ]
    },
    {
      "name": "Polygon_2-Mesh",
      "primitives": [
        {
          "attributes": {
            "POSITION": 8,
            "NORMAL": 9,
            "TEXCOORD_0": 10
          },
          "indices": 11,
          "material": 0,
          "mode": 4
        }
      ]
    },
    {
      "name": "Polygon_3-Mesh",
      "primitives": [
        {
          "attributes": {
            "POSITION": 12,
            "NORMAL": 13,
            "TEXCOORD_0": 14
          },
          "indices": 15,
          "material": 0,
          "mode": 4
        }
      ]
    },
    {
      "name": "Polygon_4-Mesh",
      "primitives": [
        {
          "attributes": {
            "POSITION": 16,
            "NORMAL": 17,
            "TEXCOORD_0": 18
          },
          "indices": 19,
          "material": 0,
          "mode": 4
        }
      ]
    },
    {
      "name": "Polygon_5-Mesh",
      "primitives": [
        {
          "attributes": {
            "POSITION": 20,
            "NORMAL": 21,
            "TEXCOORD_0": 22
          },
          "indices": 23,
          "material": 0,
          "mode": 4
        }
      ]
    },
    {
      "name": "Polygon_6-Mesh",
      "primitives": [
        {
          "attributes": {
            "POSITION": 24,
            "NORMAL": 25,
            "TEXCOORD_0": 26
          },
          "indices": 27,
          "material": 0,
          "mode": 4
        }
      ]
    },
    {
      "name": "Polygon_7-Mesh",
      "primitives": [
        {
          "attributes": {
            "POSITION": 28,
            "NORMAL": 29,
            "TEXCOORD_0": 30
          },
          "indices": 31,
          "material": 0,
          "mode": 4
        }
      ]
    },
    {
      "name": "Polygon_8-Mesh",
      "primitives": [
        {
          "attributes": {
            "POSITION": 32,
            "NORMAL": 33,
            "TEXCOORD_0": 34
          },
          "indices": 35,
          "material": 0,
          "mode": 4
        }
      ]
    },
    {
      "name": "Polygon_9-Mesh",
      "primitives": [
        {
          "attributes": {
            "POSITION": 36,
            "NORMAL": 37,
            "TEXCOORD_0": 38
          },
          "indices": 39,
          "material": 0,
          "mode": 4
        }
      ]
    },
    {
      "name": "Platonic-Mesh",
      "primitives": [
        {
          "attributes": {
            "POSITION": 40,
            "TEXCOORD_0": 41
          },
          "indices": 42,
          "material": 0,
          "mode": 4
        }
      ]
    }
  ],
  "nodes": [
    {
      "name": "Polygon",
      "mesh": 0
    },
    {
      "name": "Polygon_1",
      "mesh": 1
    },
    {
      "name": "Polygon_2",
      "mesh": 2
    },
    {
      "name": "Polygon_3",
      "mesh": 3
    },
    {
      "name": "Polygon_4",
      "mesh": 4
    },
    {
      "name": "Polygon_5",
      "mesh": 5
    },
    {
      "name": "Polygon_6",
      "mesh": 6
    },
    {
      "name": "Polygon_7",
      "mesh": 7
    },
    {
      "name": "Polygon_8",
      "mesh": 8
    },
    {
      "name": "Polygon_9",
      "mesh": 9
    },
    {
      "name": "Platonic",
      "mesh": 10
    }
  ],
  "scene": 0,
  "scenes": [
    {
      "nodes": [
        0,
        1,
        2,
        3,
        4,
        5,
        6,
        7,
        8,
        9,
        10
      ]
    }
  ]
}
